<?xml version="1.0" encoding="UTF-8"?>
<svg id="yeye" xmlns="http://www.w3.org/2000/svg" xmlns:xlink="http://www.w3.org/1999/xlink" viewBox="0 0 553.22 775.57">
  <defs>
    <style>
      .cls-1 {
        fill: none;
        stroke-width: 4.25px;
      }

      .cls-1, .cls-2, .cls-3 {
        stroke: #d1b241;
        stroke-miterlimit: 10;
      }

      .cls-2 {
        fill: url(#linear-gradient-2);
      }

      .cls-3 {
        fill: url(#linear-gradient);
      }
    </style>
    <linearGradient id="linear-gradient" x1="103.87" y1="824.1" x2="166.44" y2="824.1" gradientTransform="translate(299.21 1142.91) rotate(-180)" gradientUnits="userSpaceOnUse">
      <stop offset="0" stop-color="#e75d24"/>
      <stop offset="1" stop-color="#f89626"/>
    </linearGradient>
    <linearGradient id="linear-gradient-2" x1="357.87" y1="824.1" x2="420.44" y2="824.1" gradientTransform="translate(0 1142.91) scale(1 -1)" gradientUnits="userSpaceOnUse">
      <stop offset="0" stop-color="#e75d24"/>
      <stop offset="1" stop-color="#f89626"/>
    </linearGradient>
  </defs>
  <g>
    <polyline class="cls-1" points="277.24 2.12 156.19 2.12 135 2.12 143.29 16.95 155.95 2.33"/>
    <polyline class="cls-1" points="168.17 7.64 151.88 34.12 155.51 37.13 277.26 37.1"/>
    <polyline class="cls-1" points="155.51 37.13 165.84 56.38 187.22 37.13"/>
    <line class="cls-1" x1="180.49" y1="59.28" x2="170.28" y2="70.35"/>
    <path class="cls-1" d="m187.22,84.6v8.18h-1.27c-16.47-14.84-20.11-36.4-20.11-36.4"/>
    <path class="cls-1" d="m277.24,167.72s-67.18-30.98-84.42-98.84h84.42"/>
    <path class="cls-1" d="m205.04,118.3s-8.8-18.65-17.82-15.82l7.78,11.56"/>
    <line class="cls-1" x1="277.26" y1="181.24" x2="254.13" y2="164.44"/>
    <path class="cls-1" d="m123.8,2.12s57.89,112.73,63.42,117.09c0,0,21.24,20.36,29.38,20.95,0,0,3.2-2.33-13.38-15.71"/>
    <line class="cls-1" x1="277.24" y1="190.19" x2="218.93" y2="148.88"/>
    <line class="cls-1" x1="210.95" y1="138.05" x2="210.95" y2="165.53"/>
    <path class="cls-1" d="m277.26,255.43l-42.23-33.82s-4.87-69.16-24.08-66.11"/>
    <polyline class="cls-1" points="277.26 254.24 277.24 268.85 268.75 268.85 259.26 259.24 252.4 235.52"/>
    <path class="cls-1" d="m186.41,118.3s-4.57,13.42,8.82,46.15l23.71,17.75s8.05,46.25,16.1,64c0,0,42.25,42.18,42.23,47.42"/>
    <path class="cls-1" d="m114.93,2.12s17.49,43.2,60.46,113.67"/>
    <path class="cls-1" d="m207.73,194.7s-18.7-11.74-22.59-21.85"/>
    <path class="cls-1" d="m277.26,310.49l-68.51-67.05C175.15,125.19,107.08,4.75,107.08,4.75"/>
    <path class="cls-1" d="m98.79,14.77l53.09,132.65s45.09,85.09,47.27,96.44"/>
    <path class="cls-1" d="m235.91,313.24l-91.53-51.49-52.15-44.95,47.78,54.55c66.98,37.09,91.43,54.98,91.43,54.98,27.94,6.55,16.63-24.22,16.63-24.22-49.25-54.11-48.94-59.13-48.94-59.13"/>
    <line class="cls-1" x1="206.28" y1="282.42" x2="234.93" y2="312.69"/>
    <path class="cls-1" d="m167.88,213.17s24.29,42.04,24.29,48.44c0,0,7.13,15.15,15.56,22.34"/>
    <path class="cls-1" d="m233.84,293.61s-5.01,9.81-2.78,15"/>
    <path class="cls-1" d="m243.94,297.55s5.23,23.66-17.93,25.02"/>
    <path class="cls-1" d="m248.43,303.14s-1.14,17.16-17.94,22.5"/>
    <path class="cls-1" d="m250.01,310.06s-3.08,12.79-15.08,17.19"/>
    <path class="cls-1" d="m250.34,313.75s-5.95,12.88-11.77,13.5"/>
    <path class="cls-1" d="m187.22,268.85s-18.84-31.38-29.96-55.67l-30.76-3.35"/>
    <path class="cls-1" d="m132.82,209.83s-9.82-17.02-21.38-67.2"/>
    <line class="cls-1" x1="81.33" y1="12.15" x2="89.19" y2="26.99"/>
    <line class="cls-1" x1="93.55" y1="38.33" x2="98.79" y2="46.75"/>
    <path class="cls-1" d="m92.24,49.39s67.35,146.04,73.6,150.4"/>
    <path class="cls-1" d="m2.35,64.81s9.16-17.53,30.55-35.86c0,0,24.87,28.95,30.11,42.18"/>
    <path class="cls-1" d="m6.06,80.23s22.04-31.73,29.02-37.68c0,0,19.2,27.65,27.93,36.15,0,0,23.49,13.72,40.36,55.64l9.96,1.24"/>
    <path class="cls-1" d="m32.68,64.41S1.26,90.48,2.35,110.34"/>
    <path class="cls-1" d="m30.3,47.64s44.49,67.05,58.67,74.69c0,0,9.96,74.4,13.16,79.64l-9.34,15.31-16.4,12.76-30.4-44,13.71-8.73,35.43,42.78"/>
    <line class="cls-1" x1="96.55" y1="179.72" x2="65.97" y2="214.96"/>
    <polyline class="cls-1" points="76.53 179.72 39.22 214.3 18.71 214.3"/>
    <line class="cls-1" x1="60.17" y1="169.24" x2="60.17" y2="177.89"/>
    <line class="cls-1" x1="75.44" y1="170.99" x2="63.29" y2="181.66"/>
    <line class="cls-1" x1="8.6" y1="214.92" x2="45.99" y2="186.04"/>
    <path class="cls-1" d="m76.39,230.04v41.98l17.16,21.58v49.02l36.87,38.18,11.49-8.15,20.29,3.71s20.36-4.22,45.67-25.6"/>
    <line class="cls-1" x1="89.91" y1="277.75" x2="76.39" y2="262.92"/>
    <line class="cls-1" x1="100.53" y1="259.36" x2="118.42" y2="277.75"/>
    <path class="cls-1" d="m12.73,211.73v123.77l33.69,36.22s48,133.53,45.82,153.89c0,0,12.36,20.07,13.24-3.2,0,0-14.76-62.34-49.45-149.72l-3.05-86.28-6.98-13.75v-64.63"/>
    <line class="cls-1" x1="61.99" y1="253.9" x2="45.99" y2="215.93"/>
    <line class="cls-1" x1="81.62" y1="333.32" x2="81.47" y2="278.86"/>
    <polyline class="cls-1" points="151.73 384.67 139.95 384.67 133.55 390.63 92.24 355.86"/>
    <path class="cls-1" d="m232.17,350.12s-49.16,37.31-62.47,38.62l-25.09,3.05-10.69,7.64-41.67-33.82,1.31-22.98"/>
    <line class="cls-1" x1="90.75" y1="290.1" x2="92.24" y2="366.6"/>
    <line class="cls-1" x1="87.83" y1="286.42" x2="89.4" y2="361.13"/>
    <line class="cls-1" x1="84.56" y1="282.3" x2="85.26" y2="333.32"/>
    <line class="cls-1" x1="83.29" y1="331.64" x2="88.62" y2="338.33"/>
    <path class="cls-3" d="m195.33,320.5s-2.54-6.25-25.58-17.68c-1.66-.82-3.5-1.25-5.35-1.25h-22.42c-1.42,0-2.81.32-4.07.97-3.62,1.85-9.14,6.69-.72,17.25,0,0,11.78,18.44,43.96,16.04,0,0,14.07-5.78,14.18-15.33h0Z"/>
    <line class="cls-1" x1="81.26" y1="283.94" x2="45.99" y2="255.43"/>
    <path class="cls-1" d="m104.57,375.54l-.33,41.05,53.45,58.4s19.31-30.95,27.16-35.09l4.47-4.69-24.22-26.84h-25.31l-7.05,6,37.7,40.09"/>
    <polyline class="cls-1" points="260.02 320.5 265.69 328.35 260.02 451.6 277.26 474.99"/>
    <path class="cls-1" d="m265.47,333.32l-57.73,59.78-1.45,38.4,29.59,33.6s6.93,57.57,24.15,84.1h17.22"/>
    <path class="cls-1" d="m265.47,346.42l-50.39,51.34v27.52l48.22,57.07s1.96,18.76-1.96,22.69c0,0-5.44,15.93,5.24,30.33h10.69"/>
    <polyline class="cls-1" points="260.02 451.6 252.24 441.39 258.06 353.39"/>
    <line class="cls-1" x1="176.6" y1="446.63" x2="139.8" y2="408.37"/>
    <path class="cls-1" d="m122.13,436.14s3.08,199.14,120.34,298.2h34.77"/>
    <path class="cls-1" d="m157.69,474.99s-16.95,144.23,59.6,234.73"/>
    <path class="cls-1" d="m166.97,460.95s-13.79,108.83,9.63,176.49"/>
    <line class="cls-1" x1="207.88" y1="450.05" x2="237.07" y2="473.51"/>
    <path class="cls-1" d="m184.97,453.75s32.07,47.13,31.2,54.98l20.9,40.46h22.95"/>
    <path class="cls-1" d="m164.36,490.24s54.57,50.5,56.9,60.25h55.98"/>
    <line class="cls-1" x1="277.26" y1="575.06" x2="230.13" y2="575.06"/>
    <line class="cls-1" x1="170.79" y1="514.42" x2="204.12" y2="529.11"/>
    <path class="cls-1" d="m162.95,535.36s18.31,14.98,26.38,15.13c0,0,20.07,12.36,21.16,27.42l4.58-4.15"/>
    <line class="cls-1" x1="277.26" y1="581.83" x2="235.37" y2="581.83"/>
    <path class="cls-1" d="m210.49,577.9c-37.96,30.11,52.15,110.18,52.15,110.18h14.62v33.6"/>
    <line class="cls-1" x1="195.44" y1="592.36" x2="204.77" y2="614.36"/>
    <path class="cls-1" d="m277.26,679.64s-10.33,2.47-30.98-35.35l6.25-.87-.44-30.11-.14-9.96"/>
    <polyline class="cls-1" points="252.09 613.32 244.24 621.46 246.28 644.3"/>
    <polyline class="cls-1" points="239.21 592.36 233.4 602.77 244.24 621.46"/>
    <polyline class="cls-1" points="262.64 688.08 266.49 717.46 277.26 724.01"/>
    <polyline class="cls-1" points="222.49 657.65 212.53 657.65 168.17 603.36 222.49 657.65 233.08 657.65"/>
    <path class="cls-1" d="m2.49,361.13s5.53,19.6,30.25,43.45c0,0,10.76,29.96,21.24,40.44v84.08l132.71,139.09"/>
    <polyline class="cls-1" points="100.09 552.95 147.22 600.52 148.39 610.7 139.84 619.1"/>
    <polyline class="cls-1" points="202.42 705.11 179.95 681.32 169.04 681.32 117.33 621.46 177.6 681.05 169.19 678.05 139.51 645.17"/>
    <path class="cls-1" d="m117.33,605.61l-67.13-70.25s-48-21.67-47.71,77.96"/>
    <path class="cls-1" d="m112.17,668.2l-1.29-36.4-.45-12.7-70.11-69.9s-26.93,11.69-36.59,38.12"/>
    <line class="cls-1" x1="96.75" y1="616.67" x2="110.87" y2="631.8"/>
    <path class="cls-1" d="m184.12,772.03c-2.62-5.73-2.62-11.73-6.62-17.73-2-2-3-5-5-7-25-27-49-52-75-78-3-4-7-7-9.63-10.68"/>
    <path class="cls-1" d="m2.49,627.13c21.01,28.17,44.01,54.17,69.01,79.17,17,17,33,33,51,49,2,1,4,2,6,2,14,0,28,5,38.21,15.52"/>
    <path class="cls-1" d="m115.66,734.33s-92.51-93.23-100.07-110.11H2.5l.73,4.43s13.24,69.16,9.45,84.87"/>
    <path class="cls-1" d="m128.17,757.75c4.87,5.51,9.77,11,14.79,16.36"/>
    <path class="cls-1" d="m7.37,519.86s-3.27-10.25,23.56-40.58c0,0,10.04-11.56-3.49-21.82,0,0,24.22-20.51,1.96-34.91l5.89-11.36"/>
    <path class="cls-1" d="m4.82,504.95s3.35-15.27,21.82-35.93"/>
    <line class="cls-1" x1="30.3" y1="436.14" x2="12.73" y2="460.95"/>
    <path class="cls-1" d="m32.75,404.6s-24.15,23.64-27.93,36.29"/>
    <path class="cls-1" d="m18.79,464.44s-25.6,6.25-7.49-17.82"/>
  </g>
  <g>
    <polyline class="cls-1" points="275.96 2.12 397.01 2.12 418.2 2.12 409.91 16.95 397.25 2.33"/>
    <polyline class="cls-1" points="385.04 7.64 401.33 34.12 397.69 37.13 275.95 37.1"/>
    <polyline class="cls-1" points="397.69 37.13 387.36 56.38 365.98 37.13"/>
    <line class="cls-1" x1="372.71" y1="59.28" x2="382.92" y2="70.35"/>
    <path class="cls-1" d="m365.98,84.6v8.18h1.27c16.47-14.84,20.11-36.4,20.11-36.4"/>
    <path class="cls-1" d="m275.96,167.72s67.18-30.98,84.42-98.84h-84.42"/>
    <path class="cls-1" d="m348.16,118.3s8.8-18.65,17.82-15.82l-7.78,11.56"/>
    <line class="cls-1" x1="275.95" y1="181.24" x2="299.07" y2="164.44"/>
    <path class="cls-1" d="m429.4,2.12s-57.89,112.73-63.42,117.09c0,0-21.24,20.36-29.38,20.95,0,0-3.2-2.33,13.38-15.71"/>
    <line class="cls-1" x1="275.96" y1="190.19" x2="334.27" y2="148.88"/>
    <line class="cls-1" x1="342.26" y1="138.05" x2="342.26" y2="165.53"/>
    <path class="cls-1" d="m275.95,255.43l42.23-33.82s4.87-69.16,24.08-66.11"/>
    <polyline class="cls-1" points="275.95 254.24 275.96 268.85 284.45 268.85 293.95 259.24 300.8 235.52"/>
    <path class="cls-1" d="m366.8,118.3s4.57,13.42-8.82,46.15l-23.71,17.75s-8.05,46.25-16.1,64c0,0-42.25,42.18-42.23,47.42"/>
    <path class="cls-1" d="m438.27,2.12s-17.49,43.2-60.46,113.67"/>
    <path class="cls-1" d="m345.47,194.7s18.7-11.74,22.59-21.85"/>
    <path class="cls-1" d="m275.95,310.49l68.51-67.05C378.06,125.19,446.13,4.75,446.13,4.75"/>
    <path class="cls-1" d="m454.42,14.77l-53.09,132.65s-45.09,85.09-47.27,96.44"/>
    <path class="cls-1" d="m317.29,313.24l91.53-51.49,52.15-44.95-47.78,54.55c-66.98,37.09-91.43,54.98-91.43,54.98-27.94,6.55-16.63-24.22-16.63-24.22,49.25-54.11,48.94-59.13,48.94-59.13"/>
    <line class="cls-1" x1="346.93" y1="282.42" x2="318.27" y2="312.69"/>
    <path class="cls-1" d="m385.33,213.17s-24.29,42.04-24.29,48.44c0,0-7.13,15.15-15.56,22.34"/>
    <path class="cls-1" d="m319.36,293.61s5.01,9.81,2.78,15"/>
    <path class="cls-1" d="m309.26,297.55s-5.23,23.66,17.93,25.02"/>
    <path class="cls-1" d="m304.77,303.14s1.14,17.16,17.94,22.5"/>
    <path class="cls-1" d="m303.19,310.06s3.08,12.79,15.08,17.19"/>
    <path class="cls-1" d="m302.86,313.75s5.95,12.88,11.77,13.5"/>
    <path class="cls-1" d="m365.98,268.85s18.84-31.38,29.96-55.67l30.76-3.35"/>
    <path class="cls-1" d="m420.38,209.83s9.82-17.02,21.38-67.2"/>
    <line class="cls-1" x1="471.87" y1="12.15" x2="464.02" y2="26.99"/>
    <line class="cls-1" x1="459.65" y1="38.33" x2="454.42" y2="46.75"/>
    <path class="cls-1" d="m460.96,49.39s-67.35,146.04-73.6,150.4"/>
    <path class="cls-1" d="m550.85,64.81s-9.16-17.53-30.55-35.86c0,0-24.87,28.95-30.11,42.18"/>
    <path class="cls-1" d="m547.15,80.23s-22.04-31.73-29.02-37.68c0,0-19.2,27.65-27.93,36.15,0,0-23.49,13.72-40.36,55.64l-9.96,1.24"/>
    <path class="cls-1" d="m520.53,64.41s31.42,26.07,30.33,45.93"/>
    <path class="cls-1" d="m522.9,47.64s-44.49,67.05-58.67,74.69c0,0-9.96,74.4-13.16,79.64l9.34,15.31,16.4,12.76,30.4-44-13.71-8.73-35.43,42.78"/>
    <line class="cls-1" x1="456.65" y1="179.72" x2="487.24" y2="214.96"/>
    <polyline class="cls-1" points="476.67 179.72 513.98 214.3 534.49 214.3"/>
    <line class="cls-1" x1="493.04" y1="169.24" x2="493.04" y2="177.89"/>
    <line class="cls-1" x1="477.76" y1="170.99" x2="489.91" y2="181.66"/>
    <line class="cls-1" x1="544.6" y1="214.92" x2="507.22" y2="186.04"/>
    <path class="cls-1" d="m476.82,230.04v41.98l-17.16,21.58v49.02l-36.87,38.18-11.49-8.15-20.29,3.71s-20.36-4.22-45.67-25.6"/>
    <line class="cls-1" x1="463.29" y1="277.75" x2="476.82" y2="262.92"/>
    <line class="cls-1" x1="452.67" y1="259.36" x2="434.78" y2="277.75"/>
    <path class="cls-1" d="m540.48,211.73v123.77l-33.69,36.22s-48,133.53-45.82,153.89c0,0-12.36,20.07-13.24-3.2,0,0,14.76-62.34,49.45-149.72l3.05-86.28,6.98-13.75v-64.63"/>
    <line class="cls-1" x1="491.22" y1="253.9" x2="507.22" y2="215.93"/>
    <line class="cls-1" x1="471.58" y1="333.32" x2="471.74" y2="278.86"/>
    <polyline class="cls-1" points="401.47 384.67 413.25 384.67 419.65 390.63 460.96 355.86"/>
    <path class="cls-1" d="m321.04,350.12s49.16,37.31,62.47,38.62l25.09,3.05,10.69,7.64,41.67-33.82-1.31-22.98"/>
    <line class="cls-1" x1="462.45" y1="290.1" x2="460.96" y2="366.6"/>
    <line class="cls-1" x1="465.37" y1="286.42" x2="463.8" y2="361.13"/>
    <line class="cls-1" x1="468.65" y1="282.3" x2="467.95" y2="333.32"/>
    <line class="cls-1" x1="469.91" y1="331.64" x2="464.58" y2="338.33"/>
    <path class="cls-2" d="m357.87,320.5s2.54-6.25,25.58-17.68c1.66-.82,3.5-1.25,5.35-1.25h22.42c1.42,0,2.81.32,4.07.97,3.62,1.85,9.14,6.69.72,17.25,0,0-11.78,18.44-43.96,16.04,0,0-14.07-5.78-14.18-15.33h0Z"/>
    <line class="cls-1" x1="471.95" y1="283.94" x2="507.22" y2="255.43"/>
    <path class="cls-1" d="m448.64,375.54l.33,41.05-53.45,58.4s-19.31-30.95-27.16-35.09l-4.47-4.69,24.22-26.84h25.31l7.05,6-37.7,40.09"/>
    <polyline class="cls-1" points="293.18 320.5 287.51 328.35 293.18 451.6 275.95 474.99"/>
    <path class="cls-1" d="m287.74,333.32l57.73,59.78,1.45,38.4-29.59,33.6s-6.93,57.57-24.15,84.1h-17.22"/>
    <path class="cls-1" d="m287.74,346.42l50.39,51.34v27.52l-48.22,57.07s-1.96,18.76,1.96,22.69c0,0,5.44,15.93-5.24,30.33h-10.69"/>
    <polyline class="cls-1" points="293.18 451.6 300.96 441.39 295.15 353.39"/>
    <line class="cls-1" x1="376.6" y1="446.63" x2="413.4" y2="408.37"/>
    <path class="cls-1" d="m431.07,436.14s-3.08,199.14-120.34,298.2h-34.77"/>
    <path class="cls-1" d="m395.51,474.99s16.95,144.23-59.6,234.73"/>
    <path class="cls-1" d="m386.23,460.95s13.79,108.83-9.63,176.49"/>
    <line class="cls-1" x1="345.33" y1="450.05" x2="316.14" y2="473.51"/>
    <path class="cls-1" d="m368.24,453.75s-32.07,47.13-31.2,54.98l-20.9,40.46h-22.95"/>
    <path class="cls-1" d="m388.85,490.24s-54.57,50.5-56.9,60.25h-55.98"/>
    <line class="cls-1" x1="275.95" y1="575.06" x2="323.07" y2="575.06"/>
    <line class="cls-1" x1="382.42" y1="514.42" x2="349.09" y2="529.11"/>
    <path class="cls-1" d="m390.26,535.36s-18.31,14.98-26.38,15.13c0,0-20.07,12.36-21.16,27.42l-4.58-4.15"/>
    <line class="cls-1" x1="275.95" y1="581.83" x2="317.84" y2="581.83"/>
    <path class="cls-1" d="m342.71,577.9c37.96,30.11-52.15,110.18-52.15,110.18h-14.62v33.6"/>
    <line class="cls-1" x1="357.76" y1="592.36" x2="348.43" y2="614.36"/>
    <path class="cls-1" d="m275.95,679.64s10.33,2.47,30.98-35.35l-6.25-.87.44-30.11.14-9.96"/>
    <polyline class="cls-1" points="301.11 613.32 308.96 621.46 306.93 644.3"/>
    <polyline class="cls-1" points="313.99 592.36 319.8 602.77 308.96 621.46"/>
    <polyline class="cls-1" points="290.56 688.08 286.71 717.46 275.95 724.01"/>
    <polyline class="cls-1" points="330.71 657.65 340.67 657.65 385.03 603.36 330.71 657.65 320.13 657.65"/>
    <path class="cls-1" d="m550.71,361.13s-5.53,19.6-30.25,43.45c0,0-10.76,29.96-21.24,40.44v84.08l-132.71,139.09"/>
    <polyline class="cls-1" points="453.11 552.95 405.98 600.52 404.82 610.7 413.36 619.1"/>
    <polyline class="cls-1" points="350.78 705.11 373.25 681.32 384.16 681.32 435.87 621.46 375.6 681.05 384.02 678.05 413.69 645.17"/>
    <path class="cls-1" d="m435.87,605.61l67.13-70.25s48-21.67,47.71,77.96"/>
    <path class="cls-1" d="m441.04,668.2l1.29-36.4.45-12.7,70.11-69.9s26.93,11.69,36.59,38.12"/>
    <line class="cls-1" x1="456.45" y1="616.67" x2="442.33" y2="631.8"/>
    <path class="cls-1" d="m369,770.08c3.5-13.77,12.5-23.77,21.5-34.77,2-2,5-4,7-6,23-25,45-48,67.83-70.68"/>
    <path class="cls-1" d="m550.71,627.13c-19.37,22.99-37.83,46.77-58.26,68.84-10.18,11-20.83,21.9-31.89,32.02-5.33,4.87-10.68,9.72-16.14,14.44s-10.98,10.49-17.15,13.97c-5.86,3.31-13.55,1.49-19.97,3.33-6.66,1.92-12.73,5.54-18.02,9.98"/>
    <path class="cls-1" d="m437.55,734.33s92.51-93.23,100.07-110.11h13.09l-.73,4.43s-13.24,69.16-9.45,84.87"/>
    <path class="cls-1" d="m425.04,757.75c-3.46,4.18-7.18,8.13-10.98,11.99"/>
    <path class="cls-1" d="m545.84,519.86s3.27-10.25-23.56-40.58c0,0-10.04-11.56,3.49-21.82,0,0-24.22-20.51-1.96-34.91l-5.89-11.36"/>
    <path class="cls-1" d="m548.38,504.95s-3.35-15.27-21.82-35.93"/>
    <line class="cls-1" x1="522.9" y1="436.14" x2="540.48" y2="460.95"/>
    <path class="cls-1" d="m520.45,404.6s24.15,23.64,27.93,36.29"/>
    <path class="cls-1" d="m534.42,464.44s25.6,6.25,7.49-17.82"/>
  </g>
</svg>